<?xml version="1.0" standalone="no"?>
<!DOCTYPE svg PUBLIC "-//W3C//DTD SVG 20010904//EN"
 "http://www.w3.org/TR/2001/REC-SVG-20010904/DTD/svg10.dtd">
<svg version="1.0" xmlns="http://www.w3.org/2000/svg"
 width="1050.000000pt" height="1050.000000pt" viewBox="0 0 1050.000000 1050.000000"
 preserveAspectRatio="xMidYMid meet">
<metadata>
Created by potrace 1.14, written by Peter Selinger 2001-2017
</metadata>
<g transform="translate(0.000000,1050.000000) scale(0.100000,-0.100000)"
fill="#000000" stroke="none">
<path d="M1185 6938 c-8 -35 -135 -639 -135 -643 0 -3 424 -6 943 -7 1003 -3
972 -2 1025 -51 44 -41 56 -77 55 -162 0 -64 -33 -231 -161 -825 -88 -410
-170 -771 -182 -802 -28 -76 -103 -158 -172 -189 l-53 -24 -568 -3 -568 -3 7
25 c3 14 90 421 193 903 l186 878 -374 3 c-206 1 -376 0 -379 -3 -3 -3 -122
-551 -263 -1218 -142 -666 -260 -1220 -263 -1230 -4 -17 44 -18 1087 -14 1080
3 1093 3 1180 25 253 62 455 196 580 385 55 83 122 228 151 328 13 47 111 488
216 980 167 777 193 909 197 1009 17 357 -131 553 -478 636 -68 16 -162 18
-1146 21 l-1072 4 -6 -23z"/>
<path d="M5015 6953 c-189 -23 -281 -60 -381 -155 -78 -74 -133 -166 -173
-288 -11 -36 -69 -290 -127 -565 -117 -549 -126 -626 -90 -732 24 -72 82 -134
158 -169 l63 -29 775 -5 c602 -4 780 -8 797 -18 28 -15 43 -43 43 -75 0 -49
-120 -580 -137 -610 -11 -17 -34 -40 -53 -52 -34 -20 -50 -20 -976 -23 l-941
-3 -62 -297 c-35 -163 -66 -312 -71 -330 l-9 -33 1172 3 c1070 3 1177 5 1229
20 211 64 335 190 414 420 13 39 74 308 135 597 122 571 129 629 95 744 -19
66 -67 125 -132 163 -88 52 -119 54 -914 54 -570 0 -741 3 -760 13 -19 10 -26
21 -28 52 -3 48 102 546 126 594 9 19 30 44 45 55 28 21 37 21 961 24 l933 3
63 302 c35 166 65 312 68 325 l4 22 -1098 -1 c-605 -1 -1112 -4 -1129 -6z"/>
<path d="M7574 6625 l-70 -335 408 0 c224 0 408 -4 408 -8 0 -5 -128 -615
-285 -1357 -157 -741 -285 -1349 -285 -1351 0 -2 173 -4 385 -4 212 0 385 4
385 9 0 4 128 615 285 1356 157 742 285 1350 285 1352 0 1 186 3 413 3 l414 0
37 178 c20 97 52 248 70 335 l33 157 -1206 0 -1206 0 -71 -335z"/>
</g>
</svg>
